<svg width="1920" height="1080" viewBox="0 0 1920 1080" xmlns="http://www.w3.org/2000/svg"><rect width="1920" height="1080" fill="#18c2ec"/><path d="M 0,1080 C 0,1080 0,90 0,90 C 74.16788798420922,72.81392510770749 148.33577596841843,55.627850215414995 203,61 C 257.66422403158157,66.372149784585 292.82478411053546,94.30252424604754 353,110 C 413.17521588946454,125.69747575395246 498.3650875894398,129.16205280039478 553,123 C 607.6349124105602,116.83794719960522 631.7148655317048,101.04926455237337 679,92 C 726.2851344682952,82.95073544762663 796.7754502837404,80.64088899011178 856,81 C 915.2245497162596,81.35911100988822 963.1833333333334,84.3871794871795 1018,81 C 1072.8166666666666,77.6128205128205 1134.491216382926,67.81039306117026 1200,80 C 1265.508783617074,92.18960693882974 1334.851801134962,126.37124826813947 1403,122 C 1471.148198865038,117.62875173186053 1538.1015790772265,74.7046138662719 1595,69 C 1651.8984209227735,63.29538613372811 1698.7418825561317,94.81029626677294 1761,97 C 1823.2581174438683,99.18970373322706 1900.9308906982483,72.05420106663631 1930,66 C 1959.0691093017517,59.94579893336369 1939.5345546508759,74.97289946668184 1920,90 C 1920,90 1920,1080 1920,1080 Z" fill="#dac1e7" opacity="0.049999999999999996"/><path d="M 0,1080 C 0,1080 0,180 0,180 C 45.40127635749397,176.69139099242727 90.80255271498794,173.38278198485452 158,169 C 225.19744728501206,164.61721801514548 314.1910654975422,159.16026305300915 373,168 C 431.8089345024578,176.83973694699085 460.43318529484327,199.9761658031088 511,193 C 561.5668147051567,186.0238341968912 634.0761933230847,148.93507373455557 691,152 C 747.9238066769153,155.06492626544443 789.2620414128185,198.28353925866878 840,201 C 890.7379585871815,203.71646074133122 950.875641025641,165.93076923076924 1026,162 C 1101.124358974359,158.06923076923076 1191.2353944846175,187.99338381825427 1247,199 C 1302.7646055153825,210.00661618174573 1324.1827810358898,202.09569549621364 1381,196 C 1437.8172189641102,189.90430450378636 1530.0334813718232,185.62383419689118 1585,187 C 1639.9665186281768,188.37616580310882 1657.6832934768167,195.4089677162216 1715,192 C 1772.3167065231833,188.5910322837784 1869.2333447209096,174.74029493822243 1910,171 C 1950.7666552790904,167.25970506177757 1935.3833276395453,173.6298525308888 1920,180 C 1920,180 1920,1080 1920,1080 Z" fill="#dac1e7" opacity="0.09999999999999999"/><path d="M 0,1080 C 0,1080 0,270 0,270 C 37.88730190362314,272.59344075613507 75.77460380724628,275.18688151227013 144,273 C 212.22539619275372,270.81311848772987 310.788886674638,263.84591470705465 380,265 C 449.211113325362,266.15408529294535 489.0698494942018,275.42945965951145 536,282 C 582.9301505057982,288.57054034048855 636.9317153485548,292.43624665489955 696,287 C 755.0682846514452,281.56375334510045 819.2032891115792,266.82555372089047 880,259 C 940.7967108884208,251.17444627910953 998.2551282051281,250.2615384615385 1062,250 C 1125.7448717948719,249.7384615384615 1195.776198067908,250.12829243295562 1242,258 C 1288.223801932092,265.8717075670444 1310.6400795232403,281.225291806639 1368,285 C 1425.3599204767597,288.774708193361 1517.6634838391312,280.9705403404885 1587,280 C 1656.3365161608688,279.0294596595115 1702.7059851202337,284.89254683140695 1759,278 C 1815.2940148797663,271.10745316859305 1881.5125756799332,251.45927233388375 1910,248 C 1938.4874243200668,244.54072766611625 1929.2437121600333,257.2703638330581 1920,270 C 1920,270 1920,1080 1920,1080 Z" fill="#dac1e7" opacity="0.15"/><path d="M 0,1080 C 0,1080 0,360 0,360 C 66.06792689176109,367.9658201901725 132.13585378352218,375.931640380345 190,374 C 247.86414621647782,372.068359619655 297.5245117576723,360.2392586687924 354,360 C 410.4754882423277,359.7607413312076 473.76609918578845,371.11132494448555 528,364 C 582.2339008142116,356.88867505551445 627.4110914991743,331.3154415532654 685,329 C 742.5889085008257,326.6845584467346 812.5895348175143,347.6269088424529 870,361 C 927.4104651824857,374.3730911575471 972.230769230769,380.17692307692306 1024,384 C 1075.769230769231,387.82307692307694 1134.487388259409,389.66539884985485 1189,387 C 1243.512611740591,384.33460115014515 1293.8196777315948,377.1614815236577 1367,371 C 1440.1803222684052,364.8385184763423 1536.233900814212,359.6886750555144 1597,366 C 1657.766099185788,372.3113249444856 1683.2447190115586,390.08381825428455 1732,390 C 1780.7552809884414,389.91618174571545 1852.7872231395547,371.9760519273472 1888,364 C 1923.2127768604453,356.0239480726528 1921.6063884302225,358.01197403632636 1920,360 C 1920,360 1920,1080 1920,1080 Z" fill="#dac1e7" opacity="0.19999999999999998"/><path d="M 0,1080 C 0,1080 0,450 0,450 C 49.218115735732326,456.56622160223196 98.43623147146465,463.1324432044639 156,467 C 213.56376852853535,470.8675567955361 279.47318984987373,472.0364487843763 349,468 C 418.52681015012627,463.9635512156237 491.67100912904027,454.7217616580311 541,445 C 590.3289908709597,435.2782383419689 615.8427736339653,425.0765045834994 678,427 C 740.1572263660347,428.9234954165006 838.9578963350986,442.9722200079714 896,457 C 953.0421036649014,471.0277799920286 968.3256410256411,485.0346153846154 1017,480 C 1065.674358974359,474.9653846153846 1147.7395395623375,450.88931845356717 1226,448 C 1304.2604604376625,445.11068154643283 1378.7162007250092,463.40811080111604 1429,469 C 1479.2837992749908,474.59188919888396 1505.3956575376264,467.4782383419689 1555,453 C 1604.6043424623736,438.5217616580311 1677.7011691244852,416.67893583100835 1750,419 C 1822.2988308755148,421.32106416899165 1893.799665964433,447.80601833399766 1922,457 C 1950.200334035567,466.19398166600234 1935.1001670177834,458.0969908330012 1920,450 C 1920,450 1920,1080 1920,1080 Z" fill="#dac1e7" opacity="0.24999999999999997"/><path d="M 0,1080 C 0,1080 0,540 0,540 C 72.2798620205356,543.8595152688417 144.5597240410712,547.7190305376834 197,552 C 249.4402759589288,556.2809694623166 282.0409658562508,560.9833931181082 329,565 C 375.9590341437492,569.0166068818918 437.2764125339255,572.3473969898839 499,571 C 560.7235874660745,569.6526030101161 622.8533840080471,563.6270189223558 684,559 C 745.1466159919529,554.3729810776442 805.3100514338857,551.1445273206932 864,552 C 922.6899485661143,552.8554726793068 979.90641025641,557.7948717948717 1037,559 C 1094.09358974359,560.2051282051283 1151.0643075404735,557.6759854998197 1209,555 C 1266.9356924595265,552.3240145001803 1325.8363595816963,549.5011862058494 1390,538 C 1454.1636404183037,526.4988137941506 1523.5902541327412,506.3192696767827 1580,511 C 1636.4097458672588,515.6807303232173 1679.8026238873392,545.22173508702 1741,546 C 1802.1973761126608,546.77826491298 1881.199250317903,518.7937899751371 1914,513 C 1946.800749682097,507.20621002486286 1933.4003748410485,523.6031050124315 1920,540 C 1920,540 1920,1080 1920,1080 Z" fill="#dac1e7" opacity="0.3"/><path d="M 0,1080 C 0,1080 0,630 0,630 C 54.979605800072136,644.0712928694794 109.95921160014427,658.1425857389588 173,657 C 236.04078839985573,655.8574142610412 307.14275939949505,639.5009499136441 372,633 C 436.85724060050495,626.4990500863559 495.4697508018752,629.8536146064644 546,635 C 596.5302491981248,640.1463853935356 638.9782373930042,647.0845916604984 687,650 C 735.0217626069958,652.9154083395016 788.6172996261079,651.8080187515421 847,640 C 905.3827003738921,628.1919812484579 968.5525641025642,605.6833333333332 1041,606 C 1113.4474358974358,606.3166666666668 1195.1724439636355,629.4586479151246 1246,632 C 1296.8275560363645,634.5413520848754 1316.7576600428933,616.4820750061683 1375,606 C 1433.2423399571067,595.5179249938317 1529.7969158647913,592.6130520602022 1586,599 C 1642.2030841352087,605.3869479397978 1658.0546764979408,621.0657167530225 1720,633 C 1781.9453235020592,644.9342832469775 1889.9843781434456,653.1240809277078 1931,652 C 1972.0156218565544,650.8759190722922 1946.0078109282772,640.4379595361461 1920,630 C 1920,630 1920,1080 1920,1080 Z" fill="#dac1e7" opacity="0.35"/><path d="M 0,1080 C 0,1080 0,720 0,720 C 68.12402968361516,710.5557042266887 136.24805936723033,701.1114084533774 193,703 C 249.75194063276967,704.8885915466226 295.1317922146938,718.1100704131792 340,720 C 384.8682077853062,721.8899295868208 429.22477177399446,712.4483098939058 492,714 C 554.7752282260055,715.5516901060942 635.9691206893281,728.0966900111978 700,734 C 764.0308793106719,739.9033099888022 810.8987454686936,739.164930061303 862,729 C 913.1012545313064,718.835069938697 968.4358974358977,699.2435897435897 1038,690 C 1107.5641025641023,680.7564102564103 1191.3576647877167,681.860710964338 1244,686 C 1296.6423352122833,690.139289035662 1318.133443413236,697.3135663990586 1371,699 C 1423.866556586764,700.6864336009414 1508.1085615593388,696.8850234394275 1578,698 C 1647.8914384406612,699.1149765605725 1703.432310349409,705.1463398432312 1768,707 C 1832.567689650591,708.8536601567688 1906.162197043026,706.5296171876482 1933,708 C 1959.837802956974,709.4703828123518 1939.918901478487,714.7351914061759 1920,720 C 1920,720 1920,1080 1920,1080 Z" fill="#dac1e7" opacity="0.39999999999999997"/><path d="M 0,1080 C 0,1080 0,810 0,810 C 42.624178671069856,808.1626335667787 85.24835734213971,806.3252671335574 149,810 C 212.7516426578603,813.6747328664426 297.630749302511,822.8615650325494 355,821 C 412.369250697489,819.1384349674506 442.22864544781635,806.2284727362447 499,808 C 555.7713545521837,809.7715272637553 639.4546689062233,826.2245440224715 706,821 C 772.5453310937767,815.7754559775285 821.9526789272903,788.8733511738693 883,788 C 944.0473210727097,787.1266488261307 1016.7346153846154,812.2820512820512 1068,809 C 1119.2653846153846,805.7179487179488 1149.1088595342483,773.9984436979256 1208,778 C 1266.8911404657517,782.0015563020744 1354.829946478392,821.7241739262464 1415,830 C 1475.170053521608,838.2758260737536 1507.5713545521837,815.1048605970885 1560,807 C 1612.4286454478163,798.8951394029115 1684.8846353128738,805.8563836853992 1753,805 C 1821.1153646871262,804.1436163146008 1884.8901041963218,795.4696046613146 1912,795 C 1939.1098958036782,794.5303953386854 1929.5549479018391,802.2651976693427 1920,810 C 1920,810 1920,1080 1920,1080 Z" fill="#dac1e7" opacity="0.44999999999999996"/><path d="M 0,1080 C 0,1080 0,900 0,900 C 73.35227371937218,897.6623071229288 146.70454743874436,895.3246142458577 195,892 C 243.29545256125564,888.6753857541423 266.5340839643948,884.3638501394978 328,897 C 389.4659160356052,909.6361498605022 489.1591167036762,939.2199851961509 554,933 C 618.8408832963238,926.7800148038491 648.8294492209001,884.7562090758983 707,870 C 765.1705507790999,855.2437909241017 851.5230864127237,867.7551785002563 904,888 C 956.4769135872763,908.2448214997437 975.0782051282051,936.2230769230769 1033,926 C 1090.9217948717949,915.7769230769231 1188.1640930744556,867.3525138074363 1248,868 C 1307.8359069255444,868.6474861925637 1330.2654225739718,918.3668678471787 1381,921 C 1431.7345774260282,923.6331321528213 1510.774216629657,879.1800148038491 1569,872 C 1627.225783370343,864.8199851961509 1664.6377109073999,894.9130729374252 1724,908 C 1783.3622890926001,921.0869270625748 1864.6749397407427,917.1676934464499 1901,913 C 1937.3250602592573,908.8323065535501 1928.6625301296285,904.416153276775 1920,900 C 1920,900 1920,1080 1920,1080 Z" fill="#dac1e7" opacity="0.49999999999999994"/><path d="M 0,1080 C 0,1080 0,990 0,990 C 41.700573174666445,1010.5754256106588 83.40114634933289,1031.1508512213177 146,1021 C 208.5988536506671,1010.8491487786824 292.0959877773349,969.9720207253887 356,961 C 419.9040122226651,952.0279792746113 464.21490254132743,974.961065877128 513,987 C 561.7850974586726,999.038934122872 615.0444020573555,1000.1837157660992 683,999 C 750.9555979426445,997.8162842339008 833.6074892292509,994.3040710584752 893,1002 C 952.3925107707491,1009.6959289415248 988.5256410256411,1028.6 1048,1023 C 1107.474358974359,1017.4 1190.2899466681852,987.295928941525 1252,983 C 1313.7100533318148,978.704071058475 1354.314572301619,1000.2162842339008 1402,997 C 1449.685427698381,993.7837157660992 1504.4517641253394,965.8389341228722 1567,961 C 1629.5482358746606,956.1610658771278 1699.8783711970239,974.4279792746113 1760,978 C 1820.1216288029761,981.5720207253887 1870.0347510865647,970.4491487786826 1895,970 C 1919.9652489134353,969.5508512213174 1919.9826244567175,979.7754256106587 1920,990 C 1920,990 1920,1080 1920,1080 Z" fill="#dac1e7" opacity="0.5499999999999999"/></svg>